PathFileType	4	(X/Y/Z)	/Users/itak/Documents/Research/Walk-IL/dataset/trc/00458_00167.trc
DataRate	CameraRate	NumFrames	NumMarkers	Units	OrigDataRate	OrigDataStartFrame	OrigNumFrames
100.000000	100.000000	4	53	mm	100.000000	193	517
Frame#	Time	RPSI			LPSI			L3			STRN			T10			C7			CLAV			RBAK			LBAK			LSHO			LUPA			LAEL			LAOL			LWTS			LWPS			LFRA			LIFD			LHPS			LHTS			RSHO			RUPA			RAEL			RAOL			RWTS			RWPS			RFRA			RIFD			RHTS			RHPS			RBHD			LFHD			RFHD			LBHD			LHIP			RHIP			RASI			LASI			LKNE			LTHI			LANK			LTIP			LTOE			LMT1			LMT5			LHEE			RKNE			RTHI			RANK			RTIP			RTOE			RMT1			RMT5			RHEE			
		X1	Y1	Z1	X2	Y2	Z2	X3	Y3	Z3	X4	Y4	Z4	X5	Y5	Z5	X6	Y6	Z6	X7	Y7	Z7	X8	Y8	Z8	X9	Y9	Z9	X10	Y10	Z10	X11	Y11	Z11	X12	Y12	Z12	X13	Y13	Z13	X14	Y14	Z14	X15	Y15	Z15	X16	Y16	Z16	X17	Y17	Z17	X18	Y18	Z18	X19	Y19	Z19	X20	Y20	Z20	X21	Y21	Z21	X22	Y22	Z22	X23	Y23	Z23	X24	Y24	Z24	X25	Y25	Z25	X26	Y26	Z26	X27	Y27	Z27	X28	Y28	Z28	X29	Y29	Z29	X30	Y30	Z30	X31	Y31	Z31	X32	Y32	Z32	X33	Y33	Z33	X34	Y34	Z34	X35	Y35	Z35	X36	Y36	Z36	X37	Y37	Z37	X38	Y38	Z38	X39	Y39	Z39	X40	Y40	Z40	X41	Y41	Z41	X42	Y42	Z42	X43	Y43	Z43	X44	Y44	Z44	X45	Y45	Z45	X46	Y46	Z46	X47	Y47	Z47	X48	Y48	Z48	X49	Y49	Z49	X50	Y50	Z50	X51	Y51	Z51	X52	Y52	Z52	X53	Y53	Z53	

194	1.93	-564.3087768554688	941.4444580078125	-703.3763427734375	-546.7965698242188	930.044189453125	-844.9854736328125	-547.3495483398438	1032.178588867188	-746.9660034179688	-280.3023376464844	1235.730834960938	-727.4149780273438	-566.8349609375	1155.886474609375	-740.7819213867188	-504.8541259765625	1422.925048828125	-701.6517944335938	-318.4398803710938	1348.05712890625	-721.8189697265625	-565.4950561523438	1293.522094726562	-619.077392578125	-537.5760498046875	1384.42431640625	-803.8555297851562	-436.9553833007812	1420.230712890625	-882.1718139648438	-441.8438110351562	1313.152099609375	-992.2805786132812	-407.0824890136719	1104.495361328125	-1048.997192382812	-484.4078674316406	1075.11279296875	-986.3738403320312	-292.2460021972656	919.42626953125	-1015.420776367188	-334.3370666503906	898.80517578125	-1073.209838867188	-371.6336364746094	1022.33203125	-1063.435302734375	-248.2317352294922	758.0786743164062	-1036.525146484375	-308.2386169433594	825.3531494140625	-1080.28076171875	-255.6447143554688	842.1550903320312	-1033.830810546875	-440.3505554199219	1383.976440429688	-544.8658447265625	-457.7769165039062	1318.440185546875	-473.449951171875	-420.76123046875	1034.260620117188	-420.5146484375	-467.4646301269531	1005.677612304688	-460.42724609375	-259.7239990234375	881.0198974609375	-485.4100952148438	-312.0434265136719	840.0626220703125	-427.4991760253906	-397.56005859375	979.2566528320312	-415.4695129394531	-199.2945098876953	737.2337646484375	-487.1441955566406	-208.2324066162109	796.27685546875	-480.0906372070312	-264.3940734863281	766.2496948242188	-437.0458984375	-417.1175537109375	1618.215087890625	-602.2235107421875	-247.7136535644531	1623.134399414062	-720.6398315429688	-279.3277893066406	1614.19140625	-594.45849609375	-389.2711791992188	1637.520629882812	-776.697021484375	-381.0149841308594	843.44287109375	-945.4613037109375	-462.4740905761719	839.86328125	-547.9268188476562	-351.1141967773438	880.5700073242188	-600.3191528320312	-309.4900817871094	887.8935546875	-850.0567626953125	-204.3939056396484	468.3370971679688	-936.9295654296875	-244.7920837402344	609.4902954101562	-944.9620361328125	-138.977294921875	55.62287902832031	-1015.877502441406	-160.8967742919922	331.1997680664062	-971.8987426757812	31.56995391845703	114.2182006835938	-854.521240234375	-48.95010757446289	97.3394775390625	-858.9100341796875	-1.584741711616516	93.26078033447266	-959.2371215820312	-204.6846160888672	42.39923477172852	-975.5242309570312	-466.3538818359375	448.5362854003906	-629.35595703125	-405.2052001953125	702.0083618164062	-555.0358276367188	-608.3396606445312	44.82209014892578	-664.8897094726562	-491.4586791992188	303.9576721191406	-641.3396606445312	-412.8822631835938	45.95252990722656	-773.6987915039062	-484.5513000488281	55.21719741821289	-786.3555297851562	-473.7804565429688	45.49626922607422	-677.7086791992188	-684.9814453125	44.9258918762207	-692.2877807617188	
195	1.94	-556.578857421875	940.55419921875	-707.2966918945312	-536.9682006835938	929.090576171875	-848.65966796875	-538.8496704101562	1031.14599609375	-750.6705932617188	-272.3061218261719	1234.660766601562	-726.9976196289062	-558.6934204101562	1154.826538085938	-744.8372192382812	-497.2554626464844	1421.8876953125	-704.9136962890625	-310.5580749511719	1347.009399414062	-722.1026000976562	-559.2847900390625	1292.53466796875	-623.2565307617188	-528.3453369140625	1383.329345703125	-807.576171875	-426.4883728027344	1418.979248046875	-884.4995727539062	-430.1238708496094	1311.46142578125	-994.4182739257812	-395.961181640625	1101.967895507812	-1049.434936523438	-474.27294921875	1073.845581054688	-987.4092407226562	-285.1109619140625	914.5659790039062	-1014.858764648438	-327.2625427246094	894.8174438476562	-1072.9912109375	-361.969970703125	1019.142822265625	-1063.530395507812	-244.6784973144531	752.21826171875	-1035.589965820312	-302.7723083496094	820.7901000976562	-1079.84033203125	-250.2309265136719	836.328857421875	-1032.929077148438	-435.2546081542969	1382.87744140625	-547.0383911132812	-453.952880859375	1317.322998046875	-475.9249877929688	-418.9058532714844	1032.996826171875	-422.3644714355469	-465.0458374023438	1004.87548828125	-463.3163757324219	-258.8578491210938	877.433837890625	-483.8985900878906	-312.8244323730469	837.3671264648438	-426.883544921875	-396.6094970703125	977.7000122070312	-416.8025512695312	-200.3561401367188	732.8826904296875	-484.1876220703125	-208.6606750488281	792.035400390625	-477.4627685546875	-265.9878234863281	762.8720703125	-435.3879699707031	-411.3060302734375	1617.11376953125	-604.16650390625	-240.2791900634766	1622.453125	-720.19287109375	-273.6574401855469	1613.412231445312	-594.441650390625	-381.0173645019531	1636.490234375	-778.2378540039062	-369.6453552246094	842.6596069335938	-946.5718994140625	-457.2481079101562	839.2997436523438	-550.1346435546875	-345.033935546875	879.4747924804688	-600.939208984375	-299.7257080078125	886.9080200195312	-849.9451904296875	-193.6118927001953	467.7196655273438	-935.8775024414062	-233.6704254150391	608.66943359375	-944.280517578125	-119.1471252441406	55.42263031005859	-1010.602661132812	-147.3333892822266	331.4833068847656	-969.2019653320312	45.55354309082031	117.4729537963867	-844.2073974609375	-34.75027847290039	100.0730819702148	-851.2114868164062	16.3012638092041	94.38005828857422	-949.6838989257812	-186.1893005371094	42.25216674804688	-972.0601806640625	-462.3119506835938	448.0184020996094	-630.3697509765625	-399.057861328125	700.8726806640625	-556.0310668945312	-608.3778686523438	45.42051315307617	-665.328857421875	-488.8009948730469	303.5801696777344	-642.0914306640625	-412.6416015625	45.91178512573242	-773.4380493164062	-484.3083801269531	55.17975997924805	-786.36376953125	-473.849609375	45.53200149536133	-677.73828125	-684.98974609375	46.18185424804688	-692.9482421875	
196	1.95	-548.7203369140625	939.6842041015625	-711.3206176757812	-527.0513305664062	928.1703491210938	-852.4125366210938	-530.27587890625	1030.137451171875	-754.4119262695312	-264.2487182617188	1233.617065429688	-726.554443359375	-550.4271240234375	1153.798706054688	-748.9312133789062	-489.5335998535156	1420.871459960938	-708.24658203125	-302.6081237792969	1345.980712890625	-722.37109375	-552.971435546875	1291.579711914062	-627.539306640625	-518.95458984375	1382.268432617188	-811.3570556640625	-415.8250427246094	1417.72900390625	-886.8298950195312	-418.224853515625	1309.7021484375	-996.4569091796875	-384.6815490722656	1099.407470703125	-1049.724609375	-464.00390625	1072.584228515625	-988.359375	-278.1088256835938	909.6115112304688	-1014.167785644531	-320.2395324707031	890.8536987304688	-1072.715209960938	-352.2203979492188	1015.924865722656	-1063.504516601562	-241.5187835693359	746.26904296875	-1034.629272460938	-297.4740600585938	816.2288208007812	-1079.371215820312	-245.0759887695312	830.381591796875	-1031.928833007812	-430.1203918457031	1381.810180664062	-549.2850952148438	-450.1223449707031	1316.243286132812	-478.5110168457031	-417.2232055664062	1031.771728515625	-424.395751953125	-462.7518920898438	1004.13232421875	-466.4322204589844	-258.35595703125	873.7053833007812	-482.2782287597656	-314.1028442382812	834.6310424804688	-426.2939758300781	-395.9174499511719	976.16845703125	-418.2943420410156	-201.9920043945312	728.3434448242188	-480.9677124023438	-209.6054229736328	787.6102294921875	-474.6040954589844	-268.1972961425781	759.4093627929688	-433.6339416503906	-405.4278869628906	1616.021484375	-606.1807250976562	-232.7499542236328	1621.7568359375	-719.690185546875	-267.9589233398438	1612.62353515625	-594.4107055664062	-372.5936889648438	1635.474487304688	-779.7911987304688	-358.2366333007812	841.8966064453125	-947.7661743164062	-451.8974609375	838.743408203125	-552.520751953125	-338.84814453125	878.405029296875	-601.6978149414062	-289.9392395019531	885.9664306640625	-849.9474487304688	-182.9335327148438	466.9405517578125	-934.664306640625	-222.5778961181641	607.8334350585938	-943.5213012695312	-101.7618560791016	54.85652542114258	-1005.130554199219	-134.6122741699219	331.2698059082031	-966.35888671875	57.98333740234375	119.6911392211914	-834.8193969726562	-22.08110046386719	101.9368515014648	-843.9508056640625	31.92222785949707	94.82752227783203	-940.76708984375	-169.8746948242188	41.77392959594727	-968.0922241210938	-458.0663146972656	447.5239562988281	-631.4660034179688	-392.8049011230469	699.7626342773438	-557.1648559570312	-608.385498046875	46.10408782958984	-665.75146484375	-485.9953308105469	303.2547912597656	-642.8756103515625	-412.4024658203125	45.86878204345703	-773.18310546875	-484.0489807128906	55.14669036865234	-786.381103515625	-473.9103393554688	45.56939315795898	-677.7691650390625	-684.9510498046875	47.62888336181641	-693.5887451171875	
197	1.96	-540.7062377929688	938.8582763671875	-715.4603271484375	-517.028564453125	927.2880859375	-856.2449340820312	-521.6204833984375	1029.15625	-758.1968383789062	-256.1296081542969	1232.601318359375	-726.0961303710938	-542.023681640625	1152.803344726562	-753.0740966796875	-481.6898498535156	1419.878540039062	-711.6546630859375	-294.5885314941406	1344.973388671875	-722.6317749023438	-546.5459594726562	1290.656860351562	-631.9288330078125	-509.4035339355469	1381.246215820312	-815.1990356445312	-404.968994140625	1416.489624023438	-889.1580810546875	-406.1192932128906	1307.901245117188	-998.3983154296875	-373.2515563964844	1096.844604492188	-1049.8701171875	-453.6006164550781	1071.348510742188	-989.2366333007812	-271.2266845703125	904.6109008789062	-1013.342895507812	-313.2300415039062	886.9603271484375	-1072.383911132812	-342.3759460449219	1012.716918945312	-1063.355590820312	-238.7342834472656	740.299560546875	-1033.644897460938	-292.292236328125	811.7344970703125	-1078.8759765625	-240.1557006835938	824.3807983398438	-1030.819580078125	-424.9454345703125	1380.78857421875	-551.620361328125	-446.2838439941406	1315.22216796875	-481.2173156738281	-415.7170715332031	1030.613525390625	-426.6136474609375	-460.5794677734375	1003.471313476562	-469.7536010742188	-258.2214965820312	869.8770141601562	-480.5700988769531	-315.8749389648438	831.8953247070312	-425.7643432617188	-395.4670104980469	974.6951293945312	-419.9494018554688	-204.2305145263672	723.662109375	-477.5125427246094	-211.0839538574219	783.0477905273438	-471.539306640625	-271.0318603515625	755.91357421875	-431.819091796875	-399.4827575683594	1614.94140625	-608.2727661132812	-225.1324310302734	1621.046997070312	-719.1411743164062	-262.2347106933594	1611.83056640625	-594.379150390625	-364.0115661621094	1634.471557617188	-781.3606567382812	-346.7820434570312	841.1259765625	-949.0468139648438	-446.413330078125	838.206787109375	-555.0843505859375	-332.5455627441406	877.3745727539062	-602.5908813476562	-280.0968627929688	885.052490234375	-850.0722045898438	-172.3328704833984	465.9814147949219	-933.2046508789062	-211.5691375732422	606.9244384765625	-942.6710205078125	-86.76570129394531	53.86919403076172	-999.6666870117188	-122.6410675048828	330.5029907226562	-963.3096923828125	68.91024017333984	120.7440567016602	-826.3238525390625	-10.9250955581665	102.7815093994141	-837.1578979492188	45.35348892211914	94.56955718994141	-932.5737915039062	-155.7320404052734	40.9071044921875	-963.8757934570312	-453.604248046875	447.0620422363281	-632.62939453125	-386.4353942871094	698.6919555664062	-558.4329223632812	-608.3593139648438	46.88959121704102	-666.1478271484375	-483.0364685058594	302.9867858886719	-643.6831665039062	-412.1605834960938	45.82188034057617	-772.9323120117188	-483.7696228027344	55.12148666381836	-786.4096069335938	-473.9592590332031	45.60776519775391	-677.801513671875	-684.8574829101562	49.28103256225586	-694.20849609375	
